<svg width="173" height="32" viewBox="0 0 173 32" fill="none" xmlns="http://www.w3.org/2000/svg">
<path d="M28.5111 11.0538L25.2002 14.3925C25.4288 15.2575 25.5459 16.1484 25.5484 17.0432C25.5477 19.3673 24.7909 21.6277 23.3928 23.4818C21.9948 25.3359 20.0316 26.6824 17.8011 27.3174L17.3973 27.4236C15.7409 27.8325 14.0108 27.8366 12.3524 27.4356C10.6941 27.0345 9.1562 26.24 7.86812 25.119C6.58005 23.9979 5.57952 22.5832 4.95076 20.9937C4.322 19.4043 4.0834 17.6867 4.25506 15.9855C4.42671 14.2844 5.0036 12.6495 5.93715 11.2184C6.8707 9.78733 8.1336 8.60198 9.61954 7.76214C11.1055 6.92229 12.771 6.45253 14.4758 6.3924C16.1807 6.33226 17.875 6.68351 19.4162 7.41657L22.5555 4.27008C19.7337 2.57355 16.4308 1.86138 13.1625 2.2448C9.89429 2.62821 6.84474 4.08563 4.49009 6.38945C2.13544 8.69327 0.608268 11.7138 0.147051 14.9793C-0.314166 18.2448 0.316541 21.5715 1.94068 24.4399C3.56482 27.3082 6.09095 29.5568 9.12459 30.8343C12.1582 32.1119 15.5286 32.3466 18.7093 31.5017C21.8901 30.6569 24.7022 28.78 26.7064 26.1643C28.7107 23.5486 29.7943 20.3413 29.788 17.0432C29.7856 14.9791 29.3505 12.9386 28.5111 11.0538Z" fill="#2F80ED"/>
<path d="M35.4062 0C24.0401 5.16996 15.2481 16.9718 15.2481 16.9718L11.9271 10.9267L7.6875 15.176L13.2393 21.6562C13.2393 21.6562 13.9964 22.587 15.5862 24.4131C25.0899 4.96255 35.4062 0 35.4062 0Z" fill="#47D31A"/>
<path d="M39.4482 17.058C39.4482 12.7581 42.8348 9.2373 47.4933 9.2373C52.1518 9.2373 55.4829 12.7126 55.4829 17.058C55.4829 21.4034 52.1013 24.8787 47.4479 24.8787C42.7945 24.8787 39.4482 21.3983 39.4482 17.058ZM52.0155 17.058C52.0371 16.4447 51.9359 15.8333 51.7178 15.2599C51.4997 14.6865 51.1692 14.1627 50.7458 13.7194C50.3223 13.2761 49.8146 12.9224 49.2525 12.6791C48.6904 12.4358 48.0854 12.3079 47.4731 12.3029C44.7982 12.3029 42.9307 14.4224 42.9307 17.058C42.9098 17.6734 43.0125 18.2868 43.2327 18.8616C43.453 19.4364 43.7863 19.961 44.2129 20.4042C44.6395 20.8473 45.1506 21.1999 45.7159 21.4411C46.2812 21.6823 46.8891 21.8071 47.5034 21.8081C50.1632 21.8081 52.0155 19.6936 52.0155 17.058Z" fill="black"/>
<path d="M59.6078 24.621L59.3706 27.3426H56.6099V21.8084H57.8615C58.8306 19.7343 58.982 16.8205 58.982 14.0332V13.0215H68.4251V21.8084H69.9998L69.6162 27.3426H66.8555V24.621H59.6078ZM65.1596 21.8084V15.8493H62.0456V16.1073C62.0456 18.07 61.8942 20.1036 61.1825 21.8084H65.1596Z" fill="black"/>
<path d="M71.0127 18.8481C71.0127 15.5246 73.6826 12.8232 77.2862 12.8232C80.8899 12.8232 83.5144 15.479 83.5144 18.8481C83.5144 22.2172 80.8394 24.878 77.2408 24.878C73.6422 24.878 71.0127 22.2222 71.0127 18.8481ZM80.2792 18.8481C80.2954 18.4375 80.2293 18.0278 80.0849 17.6432C79.9405 17.2586 79.7207 16.9069 79.4384 16.6088C79.1561 16.3108 78.8171 16.0725 78.4414 15.908C78.0657 15.7435 77.6609 15.6561 77.2509 15.651C75.3734 15.651 74.2529 17.0978 74.2529 18.8481C74.2367 19.2587 74.3028 19.6684 74.4472 20.0531C74.5916 20.4377 74.8114 20.7894 75.0937 21.0874C75.376 21.3854 75.715 21.6237 76.0907 21.7882C76.4664 21.9527 76.8712 22.0401 77.2812 22.0452C79.1587 22.0452 80.2792 20.5984 80.2792 18.8481Z" fill="black"/>
<path d="M85.3462 17.9634C85.3462 14.4881 85.8509 10.7902 90.1965 9.99092L96.364 8.84766L96.8687 11.4377L90.5346 12.6922C88.3997 13.1222 87.8193 14.311 87.7335 15.4138C88.1625 14.6601 89.5656 13.4713 91.9327 13.4713C92.6574 13.4739 93.3745 13.6202 94.0427 13.9017C94.7108 14.1832 95.3168 14.5944 95.8258 15.1116C96.3348 15.6288 96.7367 16.2418 97.0083 16.9152C97.28 17.5887 97.4161 18.3094 97.4088 19.0358C97.4058 19.8223 97.2455 20.6002 96.9374 21.3235C96.6293 22.0468 96.1797 22.7009 95.615 23.247C95.0504 23.7931 94.3822 24.2202 93.65 24.5031C92.9178 24.7859 92.1365 24.9188 91.3522 24.8938C87.4811 24.8786 85.3462 22.415 85.3462 17.9634ZM94.2089 19.0662C94.2265 18.6798 94.1669 18.2938 94.0336 17.9309C93.9003 17.568 93.696 17.2354 93.4328 16.9526C93.1695 16.6699 92.8525 16.4427 92.5004 16.2844C92.1483 16.1262 91.7683 16.04 91.3825 16.031C89.722 16.031 88.6016 17.3715 88.6016 19.0662C88.5874 19.449 88.6497 19.8307 88.7849 20.189C88.9201 20.5473 89.1254 20.8749 89.3888 21.1525C89.6521 21.4301 89.9681 21.6521 90.3183 21.8055C90.6685 21.9589 91.0458 22.0406 91.4279 22.0457C93.1086 22.0457 94.2089 20.7406 94.2089 19.0662Z" fill="black"/>
<path d="M99.5547 13.036H102.83V14.7003C103.229 14.1073 103.771 13.6245 104.405 13.2965C105.039 12.9685 105.746 12.8058 106.459 12.8236C109.149 12.8236 111.718 14.9381 111.718 18.8484C111.718 22.7588 109.195 24.8329 106.459 24.8329C105.766 24.8465 105.079 24.6976 104.453 24.3981C103.828 24.0986 103.281 23.6568 102.855 23.1078V28.0755H99.5799L99.5547 13.036ZM108.417 18.808C108.417 16.8857 107.12 15.6109 105.591 15.6109C104.062 15.6109 102.79 16.8857 102.79 18.8484C102.79 20.8112 104.062 22.0455 105.591 22.0455C107.12 22.0455 108.417 20.796 108.417 18.808Z" fill="black"/>
<path d="M124.628 24.6215H121.458V17.8783L116.951 24.6215H113.873V13.0371H117.057V19.8005L121.564 13.0371H124.628V24.6215Z" fill="black"/>
<path d="M127.364 13.0371H130.685L133.809 17.8985L136.978 13.0371H140.299V24.6215H136.978V17.6607L133.768 22.4159L130.599 17.7063V24.6215H127.364V13.0371Z" fill="black"/>
<path d="M143.211 22.3486H145.195V24.62H143.211V22.3486Z" fill="black"/>
<path d="M148.47 13.4512H150.131V15.682C151.034 14.3415 152.352 13.1982 154.401 13.1982C157.071 13.1982 159.72 15.3128 159.72 19.0309C159.72 22.749 157.091 24.8585 154.406 24.8585C153.552 24.8568 152.712 24.6377 151.965 24.2219C151.218 23.806 150.589 23.207 150.136 22.4809V28.0758H148.476L148.47 13.4512ZM158.02 19.0157C158.02 16.3801 156.208 14.6956 154.098 14.6956C153.547 14.7125 153.006 14.8387 152.504 15.0668C152.002 15.2948 151.55 15.6203 151.175 16.0244C150.8 16.4284 150.508 16.9031 150.316 17.4209C150.125 17.9386 150.038 18.4893 150.06 19.041C150.039 19.5913 150.126 20.1404 150.318 20.6564C150.51 21.1725 150.802 21.6452 151.178 22.0471C151.554 22.449 152.005 22.7721 152.507 22.9977C153.008 23.2233 153.549 23.3468 154.098 23.3611C156.253 23.3662 158.02 21.7524 158.02 19.0208V19.0157Z" fill="black"/>
<path d="M161.471 27.5792L162.032 26.2589C162.568 26.5469 163.17 26.6882 163.778 26.6687C164.787 26.6687 165.393 26.1628 166.064 24.5744L161.017 13.4453H162.849L166.887 22.7533L170.465 13.4453H172.232L167.553 24.9791C166.609 27.2909 165.534 28.1357 163.849 28.1357C163.023 28.1455 162.207 27.9546 161.471 27.5792Z" fill="black"/>
</svg>
