<svg width="168" height="32" viewBox="0 0 168 32" fill="none" xmlns="http://www.w3.org/2000/svg">
<g clip-path="url(#clip0)">
<path d="M65.943 8.50435L63.167 22.0341C63.043 22.4304 62.765 22.6291 62.347 22.6291H60.013C59.565 22.6291 59.293 22.4246 59.192 22.0175L57.09 11.6429C56.9827 11.1132 56.8847 10.5817 56.796 10.0488H56.354L56.037 11.6429L53.958 22.0175C53.9433 22.1057 53.9107 22.1901 53.8621 22.2658C53.8135 22.3416 53.7499 22.4071 53.675 22.4587C53.5205 22.5733 53.3313 22.6349 53.137 22.6339H50.781C50.345 22.6339 50.079 22.4363 49.982 22.0399L47.207 8.50922H49.433L51.512 19.2754C51.552 19.5071 51.636 20.1079 51.766 21.0788H52.248C52.316 20.4945 52.423 19.8927 52.565 19.2754L54.644 9.18697C54.74 8.73514 55.006 8.51506 55.442 8.51506H57.691C57.889 8.51506 58.059 8.58128 58.206 8.70787C58.353 8.8403 58.45 9 58.489 9.18794L60.551 19.2968C60.664 19.8431 60.766 20.439 60.868 21.0788H61.349C61.378 20.885 61.417 20.5929 61.474 20.1966C61.531 19.7993 61.582 19.5071 61.621 19.3133L63.7 8.51116H65.943V8.50532V8.50435ZM77.768 20.9249L77.876 22.5025C76.602 22.6125 74.529 22.668 71.657 22.668C70.762 22.668 70.055 22.4421 69.533 21.9844C69.013 21.5267 68.746 20.9084 68.735 20.1313V11.0031C68.746 10.226 69.012 9.60764 69.533 9.14997C70.049 8.69229 70.757 8.46637 71.657 8.46637C74.529 8.46637 76.602 8.5209 77.877 8.63191L77.768 10.226H72.008C71.589 10.226 71.289 10.3243 71.114 10.523C70.938 10.7217 70.854 11.0586 70.854 11.5377V14.3617H76.97V16.0219H70.853V19.624C70.853 20.1031 70.938 20.44 71.113 20.6387C71.289 20.8373 71.583 20.9357 72.008 20.9357H77.768V20.9259V20.9249ZM88.428 15.2556V15.3384C89.481 15.4318 90.223 15.7902 90.665 16.4134C91.107 17.0366 91.327 17.9306 91.327 19.1049C91.327 20.5228 90.982 21.4936 90.285 22.0117C89.595 22.5297 88.382 22.7888 86.661 22.7888C84.293 22.7888 82.469 22.7342 81.195 22.6232V8.50532C82.328 8.39529 83.942 8.33978 86.026 8.33978C87.85 8.33978 89.113 8.59394 89.821 9.10712C90.529 9.6203 90.88 10.5902 90.88 12.0246C90.88 13.05 90.682 13.8222 90.291 14.3461C89.906 14.87 89.277 15.1738 88.428 15.2566V15.2556ZM83.257 14.5223H86.197C87.204 14.5223 87.901 14.3675 88.286 14.0646C88.671 13.755 88.864 13.159 88.864 12.2719C88.864 11.4004 88.654 10.8161 88.235 10.523C87.815 10.2309 87.045 10.0819 85.925 10.0819H83.257V14.5223ZM83.257 21.0243L86.343 21.0467C87.448 21.0467 88.201 20.8918 88.603 20.589C89 20.2793 89.203 19.6736 89.203 18.7583C89.203 17.7319 88.988 17.0366 88.563 16.6724C88.139 16.3024 87.357 16.1154 86.219 16.0989H83.257V21.0243ZM102.021 15.2556V15.3384C103.074 15.4318 103.816 15.7902 104.258 16.4134C104.699 17.0366 104.92 17.9306 104.92 19.1049C104.92 20.5228 104.575 21.4936 103.878 22.0117C103.188 22.5297 101.975 22.7888 100.253 22.7888C97.886 22.7888 96.063 22.7342 94.788 22.6232V8.50532C95.921 8.39529 97.535 8.33978 99.619 8.33978C101.443 8.33978 102.706 8.59394 103.414 9.10712C104.122 9.6203 104.473 10.5902 104.473 12.0246C104.473 13.05 104.275 13.8222 103.883 14.3461C103.499 14.87 102.876 15.1738 102.021 15.2566V15.2556ZM96.85 14.5223H99.789C100.797 14.5223 101.494 14.3675 101.879 14.0646C102.264 13.755 102.457 13.159 102.457 12.2719C102.457 11.4004 102.247 10.8161 101.828 10.523C101.408 10.2309 100.638 10.0819 99.518 10.0819H96.85V14.5223ZM96.85 21.0243L99.936 21.0467C101.041 21.0467 101.794 20.8918 102.196 20.589C102.593 20.2793 102.796 19.6736 102.796 18.7583C102.796 17.7319 102.581 17.0366 102.156 16.6724C101.732 16.3024 100.95 16.1154 99.812 16.0989H96.85V21.0243ZM116.078 18.3658H110.3L108.958 22.6242H106.817L111.354 9.05648C111.468 8.68645 111.728 8.50435 112.13 8.50435H114.271C114.691 8.50435 114.945 8.68645 115.031 9.05648L119.589 22.6242H117.426L116.078 18.3658ZM115.534 16.5838L113.829 11.2241C113.767 11.0332 113.707 10.8416 113.649 10.6496C113.569 10.3906 113.512 10.1978 113.467 10.077H112.901L112.566 11.2241L110.862 16.5848H115.534V16.5838ZM133.414 8.50435V21.8237C133.414 22.3535 133.154 22.6242 132.639 22.6242H130.645C130.225 22.6242 129.925 22.4139 129.739 21.9893L125.219 12.3712C124.715 11.3069 124.426 10.6506 124.359 10.4071H124.064C124.132 10.9534 124.171 11.6097 124.171 12.3712V22.6242H122.071V9.3048C122.071 8.77506 122.336 8.50435 122.869 8.50435H124.8C125.208 8.50435 125.514 8.71469 125.723 9.13926L130.113 18.509C130.169 18.6307 130.265 18.8352 130.407 19.1108C130.549 19.3922 130.679 19.6561 130.797 19.9103C130.917 20.1634 131.024 20.3952 131.127 20.6163H131.444C131.378 19.8879 131.342 19.1573 131.336 18.4262V8.50435H133.415H133.414ZM141.066 16.094H139.429C139.526 16.6676 139.577 17.1525 139.577 17.5449V22.6184H137.475V8.49851H139.577V12.8396C139.577 13.4239 139.526 13.9595 139.429 14.4337H141.066L145.331 8.49948H147.619L143.519 14.2682C143.257 14.6216 142.961 14.9502 142.635 15.2497V15.3101C143.025 15.6363 143.365 15.9947 143.643 16.3754L147.885 22.6174H145.552L141.066 16.093V16.094ZM152.643 22.6242H150.542V8.50435H152.642V22.6242H152.643ZM167.08 22.6242H164.831L163.591 18.2227C163.285 17.2791 162.673 16.8107 161.761 16.8107L158.777 16.7883V22.6184H156.698V8.49851C157.888 8.37776 159.575 8.31738 161.761 8.31738C163.511 8.31738 164.746 8.60952 165.471 9.19963C166.191 9.7839 166.553 10.8599 166.553 12.4151C166.553 13.5456 166.343 14.4006 165.936 14.9742C165.522 15.5477 164.836 15.8954 163.886 16.0161V16.1213C164.826 16.3969 165.432 17.0756 165.715 18.1672L167.08 22.6242ZM158.777 15.0511H161.717C162.753 15.0404 163.467 14.8583 163.851 14.5106C164.236 14.163 164.429 13.5076 164.429 12.5368C164.429 11.5825 164.236 10.931 163.851 10.5951C163.466 10.2533 162.753 10.0819 161.716 10.0819C160.289 10.0819 159.309 10.0877 158.776 10.1043V15.0511H158.777Z" fill="#212429"/>
<path d="M25.26 31.1232H9.15803C4.12803 31.1232 0.0170288 27.119 0.0170288 22.2228V8.93455C0.0170288 4.03642 4.12903 0.0332031 9.15803 0.0332031H25.26C30.29 0.0332031 34.401 4.0374 34.401 8.93455V22.2228C34.401 27.1151 30.284 31.1241 25.261 31.1241L25.26 31.1232Z" fill="#F9DA5E"/>
<path d="M25.26 31.1232H9.15803C4.12803 31.1232 0.0170288 27.119 0.0170288 22.2228V8.93455C0.0170288 4.03642 4.12903 0.0332031 9.15803 0.0332031H25.26C30.29 0.0332031 34.401 4.0374 34.401 8.93455V22.2228C34.401 27.1151 30.284 31.1241 25.261 31.1241L25.26 31.1232Z" fill="white"/>
<path d="M21.88 6.41357L29.805 14.1308L21.419 22.2969L13.494 14.5797L21.88 6.41357Z" fill="#F9DA5E"/>
<path d="M23.1021 8.02028L22.1821 7.1244C22.0789 7.02503 21.9397 6.96929 21.7946 6.96929C21.6495 6.96929 21.5102 7.02503 21.4071 7.1244L9.96606 18.2635C9.86401 18.3639 9.80678 18.4995 9.80678 18.6408C9.80678 18.7821 9.86401 18.9177 9.96606 19.0182L16.7961 25.6691C16.8992 25.7685 17.0385 25.8242 17.1836 25.8242C17.3287 25.8242 17.4679 25.7685 17.5711 25.6691L29.0111 14.529C29.1131 14.4286 29.1703 14.293 29.1703 14.1517C29.1703 14.0104 29.1131 13.8748 29.0111 13.7744L24.6971 9.57249L16.4201 17.6325L14.8231 16.0822L23.1031 8.0193L23.1021 8.02028ZM9.48306 19.4885C9.25296 19.2635 9.12378 18.9589 9.12378 18.6413C9.12378 18.3238 9.25296 18.0192 9.48306 17.7941L20.9241 6.65406C21.1551 6.43 21.468 6.3042 21.7941 6.3042C22.1202 6.3042 22.433 6.43 22.6641 6.65406L29.4941 13.305C29.7242 13.53 29.8533 13.8346 29.8533 14.1522C29.8533 14.4697 29.7242 14.7744 29.4941 14.9994L18.0541 26.1395C17.823 26.3635 17.5102 26.4893 17.1841 26.4893C16.858 26.4893 16.5451 26.3635 16.3141 26.1395L9.48406 19.4885H9.48306Z" fill="#0E0F0F"/>
<path d="M17.8121 25.905C17.645 26.0666 17.419 26.1572 17.1836 26.1572C16.9481 26.1572 16.7222 26.0666 16.5551 25.905L5.11506 14.7649C4.94883 14.6022 4.85553 14.382 4.85553 14.1524C4.85553 13.9229 4.94883 13.7027 5.11506 13.5399L11.9451 6.89482C12.1122 6.73325 12.3381 6.64258 12.5736 6.64258C12.809 6.64258 13.035 6.73325 13.2021 6.89482L24.6421 18.0349C24.8083 18.1976 24.9016 18.4179 24.9016 18.6474C24.9016 18.8769 24.8083 19.0972 24.6421 19.2599L17.8121 25.905Z" fill="#F9DA5E"/>
<path d="M16.314 26.1404L4.87405 14.9994C4.64395 14.7744 4.51477 14.4698 4.51477 14.1522C4.51477 13.8346 4.64395 13.53 4.87405 13.305L11.704 6.65894C11.9351 6.43488 12.2479 6.30908 12.574 6.30908C12.9001 6.30908 13.213 6.43488 13.444 6.65894L24.8841 17.8C25.1141 18.025 25.2433 18.3296 25.2433 18.6472C25.2433 18.9647 25.1141 19.2693 24.8841 19.4944L18.0541 26.1404C17.823 26.3645 17.5101 26.4903 17.184 26.4903C16.8579 26.4903 16.5451 26.3645 16.314 26.1404ZM17.571 25.6701L24.401 19.024C24.5028 18.9236 24.5598 18.7882 24.5598 18.6472C24.5598 18.5061 24.5028 18.3707 24.401 18.2703L12.962 7.1283C12.8589 7.02894 12.7196 6.9732 12.5745 6.9732C12.4294 6.9732 12.2902 7.02894 12.187 7.1283L5.35705 13.7744C5.255 13.8748 5.19777 14.0104 5.19777 14.1517C5.19777 14.293 5.255 14.4286 5.35705 14.5291L16.7971 25.6691C16.9002 25.7685 17.0394 25.8242 17.1845 25.8242C17.3296 25.8242 17.4689 25.7685 17.5721 25.6691L17.571 25.6701ZM16.1451 23.0019C15.845 23.2941 15.348 23.2902 15.04 22.9902L6.58405 14.7559C6.51136 14.6861 6.45353 14.603 6.41388 14.5114C6.37423 14.4198 6.35353 14.3215 6.35297 14.2221C6.35242 14.1226 6.37201 14.0241 6.41063 13.9321C6.44926 13.84 6.50615 13.7563 6.57805 13.6858L11.998 8.40786C12.0705 8.33769 12.1566 8.28217 12.2512 8.24447C12.3458 8.20677 12.4471 8.18765 12.5493 8.18819C12.6515 8.18873 12.7526 8.20894 12.8468 8.24764C12.9409 8.28633 13.0263 8.34277 13.098 8.4137L21.5541 16.6422C21.857 16.944 21.864 17.4212 21.564 17.7182L16.144 23.0019H16.1451ZM21.4681 17.6247C21.5861 17.5048 21.651 17.3446 21.649 17.1785C21.6469 17.0124 21.578 16.8537 21.4571 16.7366L13 8.50816C12.941 8.44977 12.8707 8.40329 12.7932 8.37139C12.7157 8.33949 12.6324 8.32279 12.5483 8.32225C12.4641 8.32171 12.3807 8.33733 12.3028 8.36823C12.2248 8.39913 12.1539 8.44469 12.094 8.50231L6.67405 13.7802C6.61481 13.8384 6.56794 13.9074 6.53613 13.9833C6.50431 14.0592 6.48818 14.1404 6.48864 14.2223C6.48911 14.3043 6.50616 14.3853 6.53884 14.4609C6.57151 14.5364 6.61915 14.6049 6.67905 14.6625L15.135 22.8968C15.2547 23.0157 15.4178 23.0836 15.5888 23.0856C15.7597 23.0876 15.9245 23.0236 16.0471 22.9075L21.467 17.6247H21.4681ZM20.409 22.0038C20.2634 22.1325 20.0724 22.2016 19.8758 22.197C19.6791 22.1923 19.4919 22.1142 19.3528 21.9787C19.2137 21.8433 19.1335 21.6609 19.1287 21.4695C19.1239 21.278 19.1949 21.0921 19.327 20.9502C19.3975 20.8798 19.4817 20.8238 19.5747 20.7856C19.6677 20.7474 19.7676 20.7277 19.8685 20.7277C19.9695 20.7277 20.0694 20.7474 20.1624 20.7856C20.2554 20.8238 20.3396 20.8798 20.41 20.9502C20.5533 21.09 20.6338 21.2795 20.6338 21.477C20.6338 21.6745 20.5533 21.864 20.41 22.0038H20.409ZM20.313 21.0437C20.2553 20.9856 20.1861 20.9395 20.1096 20.908C20.0332 20.8765 19.9511 20.8603 19.868 20.8603C19.785 20.8603 19.7029 20.8765 19.6265 20.908C19.55 20.9395 19.4808 20.9856 19.423 21.0437C19.3348 21.1294 19.2747 21.2387 19.2503 21.3578C19.2258 21.4768 19.2382 21.6002 19.2859 21.7124C19.3335 21.8246 19.4143 21.9205 19.5179 21.9879C19.6215 22.0554 19.7434 22.0914 19.868 22.0914C19.9927 22.0914 20.1146 22.0554 20.2182 21.9879C20.3218 21.9205 20.4026 21.8246 20.4502 21.7124C20.4979 21.6002 20.5103 21.4768 20.4858 21.3578C20.4614 21.2387 20.4013 21.1294 20.313 21.0437Z" fill="#0E0F0F"/>
</g>
<defs>
<clipPath id="clip0">
<rect width="168" height="31.161" fill="white"/>
</clipPath>
</defs>
</svg>
