<?xml version="1.0" encoding="utf-8"?>
<!-- Generator: Adobe Illustrator 23.0.1, SVG Export Plug-In . SVG Version: 6.00 Build 0)  -->
<svg version="1.1" id="Слой_1" xmlns="http://www.w3.org/2000/svg" xmlns:xlink="http://www.w3.org/1999/xlink" x="0px" y="0px"
	 viewBox="0 0 258.8 52.7" style="enable-background:new 0 0 258.8 52.7;" xml:space="preserve">
<title>Ресурс 2</title>
<g>
	<g id="Слой_1-2">
		<g class="st0" >
			<path fill="white" class="st1" d="M34,40.1l0-19.8l-9.7,16.3h-3.4l-9.7-15.9v19.4H3.9V7.1h6.3l12.4,20.5L34.8,7.1h6.3l0.1,33.1H34z"/>
		</g>
		<g class="st0">
			<path fill="white" class="st1" d="M101.7,28.4v11.7H94V28.3L81.2,7.1h8.1l8.8,14.7L107,7.1h7.5L101.7,28.4z"/>
		</g>
		<g class="st0">
			<path fill="#262626" class="st2" d="M145.8,33.9v6.2h-28.9v-5L135,13.3h-17.8V7.1h27.8v5L127,33.9H145.8z"/>
		</g>
		<g class="st0">
			<path fill="#262626" class="st2" d="M174.5,33.1h-15.4l-2.9,7.1h-7.8l14.7-33.1h7.6l14.8,33.1h-8L174.5,33.1z M172,27.3l-5.2-12.7l-5.2,12.7H172
				z"/>
		</g>
		<g class="st0">
			<path fill="#262626" class="st2" d="M213.3,34v6.1h-25.6V7.1h25v6.1h-17.4v7.2h15.4v6h-15.4V34H213.3z"/>
		</g>
		<g class="st0">
			<path fill="#262626" class="st2" d="M247.7,40.1l0-19.8l-9.7,16.3h-3.4l-9.7-15.9v19.4h-7.2V7.1h6.3l12.4,20.5l12.2-20.5h6.3l0.1,33.1H247.7z"/>
		</g>
		<path fill="white" class="st3" d="M51.4,11.4c-5.5,7-5.5,16.8,0,23.9c5.5,6.5,14.2,6.5,19.6,0c5.5-7,5.5-16.8,0-23.9
			C65.6,4.9,56.8,4.9,51.4,11.4z M73.1,12.4h4.4C75.2,8.8,71.2,6.7,67,6.5h-0.4C69.2,7.9,71.5,9.9,73.1,12.4L73.1,12.4z M75.8,19.3
			h4.6c-0.4-2-1.1-4-2.2-5.8h-4.5C74.7,15.3,75.4,17.3,75.8,19.3L75.8,19.3z M76,26.2h4.7c0.3-1.9,0.3-3.9,0-5.8H76
			C76.3,22.4,76.3,24.3,76,26.2z M73.7,33.2h4.5c1-1.8,1.8-3.8,2.2-5.8h-4.6C75.4,29.4,74.7,31.4,73.7,33.2L73.7,33.2z M73,34.3
			c-1.6,2.5-3.8,4.5-6.5,5.8H67c4.2-0.1,8.1-2.3,10.5-5.8H73z"/>
	</g>
</g>
</svg>
